<svg width="29" height="35" viewBox="0 0 29 35" fill="none" xmlns="http://www.w3.org/2000/svg">
<path d="M3.22193 0C1.4426 0 0 1.43194 0 3.18194V31.8185C0 33.5685 1.4426 35 3.22193 35H25.7781C27.5583 35 29 33.5685 29 31.8185V9.54538L19.3338 0H3.22193ZM25.526 15.9092H27.1874L26.7847 16.2076C25.9938 17.1618 25.253 17.9673 24.8211 18.4446C24.8357 18.4301 24.8556 18.4603 24.8716 18.4446C25.471 18.1265 26.8024 17.3211 27.389 17.003C27.413 17.003 27.389 17.3311 27.389 17.6492V18.0967L27.1374 18.2954C26.9907 18.4546 26.6868 18.5841 26.4325 18.7429C23.9606 20.1749 22.5247 22.4118 22.1025 24.9576C21.9576 25.9118 22.0214 27.6719 22.2531 28.7857C22.5353 30.2172 23.3386 32.2556 24.0156 33.2102L24.1662 33.4092H16.6648V32.9118C16.6648 32.753 16.6847 32.2954 16.7153 31.8181C16.9328 29.1139 17.7277 26.7173 18.9811 24.8084C19.0697 24.6492 19.2044 24.4703 19.2833 24.311C19.3635 24.1522 19.4769 24.0227 19.5349 23.8639C19.6989 23.7046 19.585 23.6845 19.1823 24.1618C18.6413 24.4803 17.2611 25.5837 16.6652 25.9022C15.0038 26.8564 13.3671 27.5227 11.6303 27.8412C11.0034 28 9.60774 28.1391 9.26437 28.1391C9.12613 27.9803 9.01183 27.9803 9.01183 28.1391C9.01183 28.1391 9.16557 28.1295 9.31444 28.2883C9.57584 28.2883 10.162 28.6265 10.2205 28.7857H10.3711C10.7327 29.1038 11.6148 29.7399 12.1336 30.3765C12.9232 31.1719 13.5678 32.2556 13.7951 33.2102L13.8456 33.4092H12.4353L12.2847 33.061C11.6511 31.4703 10.2112 29.8795 8.458 29.0841C7.5391 28.6068 6.77615 28.4476 5.68888 28.2883C4.76555 28.1295 2.78684 28.1194 1.86218 28.4371H1.61052V27.8408C1.61052 27.5227 1.64596 27.1946 1.66103 27.1946H2.31543C2.95786 27.0353 4.63883 27.0353 4.93347 27.1946C5.25291 27.1946 5.05176 27.0152 4.48022 26.6976C3.73056 26.3791 2.59633 25.7727 2.06377 25.4546L1.61052 25.2556V24.4606C1.60963 23.6653 1.54849 23.6849 2.16434 24.1622C2.79172 24.6396 3.97956 25.2858 4.78282 25.6043C7.43941 26.8769 9.45976 27.0358 12.0827 26.3996C13.4118 26.0816 15.1057 25.2661 16.5638 24.3114C17.0215 23.9934 18.0684 23.3769 18.1747 23.2177C18.2102 23.2177 18.3781 23.0287 18.5779 22.8699C20.1051 21.5967 22.6674 19.2303 23.8641 17.7988C23.9465 17.7988 24.0696 17.6597 24.1662 17.5004C24.5224 17.1824 25.3807 16.0685 25.5255 15.9097L25.526 15.9092Z" fill="#4A6FFF"/>
</svg>
