<svg width="31" height="31" viewBox="0 0 31 31" fill="none" xmlns="http://www.w3.org/2000/svg">
<path d="M31 15.5C31 24.0604 24.0604 31 15.5 31C6.93959 31 0 24.0604 0 15.5C0 6.93959 6.93959 0 15.5 0C24.0604 0 31 6.93959 31 15.5Z" fill="#4A6FFF"/>
<path d="M16.7071 8.29289C16.3166 7.90237 15.6834 7.90237 15.2929 8.29289L8.92893 14.6569C8.53841 15.0474 8.53841 15.6805 8.92893 16.0711C9.31946 16.4616 9.95262 16.4616 10.3431 16.0711L16 10.4142L21.6569 16.0711C22.0474 16.4616 22.6805 16.4616 23.0711 16.0711C23.4616 15.6805 23.4616 15.0474 23.0711 14.6569L16.7071 8.29289ZM16 23H17V9H16H15V23H16Z" fill="white"/>
</svg>
